<svg width="152" height="152" viewBox="0 0 152 152" fill="none" xmlns="http://www.w3.org/2000/svg">
<rect width="152" height="152" rx="8" fill="#EEEEEE"/>
<path d="M117.002 82.8422C116.593 72.0614 114.957 61.2805 114.957 50.4997C114.957 41.7153 116.593 32.5316 113.321 24.1465C113.321 23.3479 113.73 22.15 113.73 21.3514C114.548 16.9592 100.237 19.355 98.1921 23.3479C96.9654 24.5458 96.1476 25.7436 96.5565 27.3408C96.5565 27.7401 96.9654 28.1394 96.9654 28.5387C94.1031 41.316 90.4229 54.0933 86.3339 66.4713C84.6983 71.2628 82.6538 76.0543 81.0182 80.8458C78.5648 76.4536 76.1114 72.0614 74.0668 67.2699C68.3422 53.2947 63.4354 39.3195 56.4841 26.1429C57.3019 20.1536 43.3992 20.5529 40.5369 26.1429C37.2656 32.9309 37.6745 39.7188 38.9013 47.3054C40.128 55.6905 40.5369 63.6763 40.5369 72.0614C40.5369 88.033 42.1725 104.005 42.1725 119.976C40.5369 121.573 40.128 123.57 41.7636 125.566C42.5814 126.365 43.3992 127.164 44.217 127.962C47.8971 130.757 58.5286 128.361 58.5286 122.771C58.5286 106.001 57.3019 89.6302 56.893 72.86C56.893 71.2628 56.893 69.6657 56.893 68.0685C57.3019 68.4678 57.3019 69.2664 57.7108 69.6656C60.1642 76.0543 63.0265 82.443 66.7066 88.4323C70.3867 94.4217 72.0223 100.81 74.0668 107.199C73.249 107.998 72.8401 109.195 73.249 109.994C73.249 110.793 73.658 111.192 74.4758 111.591C76.9292 113.987 82.2449 112.789 84.6983 111.591C85.925 111.192 87.1517 110.393 87.9695 109.994C89.1962 109.195 91.6497 107.199 90.8319 105.203C90.8319 104.803 90.4229 104.404 90.4229 104.005C92.4675 98.8139 93.2853 93.6231 94.512 88.033C95.7387 82.443 97.7832 76.8529 99.8277 71.2628C100.237 73.6586 100.237 76.4536 100.645 78.8493C101.463 89.2309 100.645 99.2132 100.645 109.595C100.645 113.188 101.054 115.983 101.463 119.577C101.872 120.775 103.099 126.764 102.69 127.164C100.237 129.559 101.054 132.354 104.326 132.754C108.006 133.552 112.913 132.354 115.775 129.959C120.682 125.566 118.228 118.379 117.41 112.789C114.957 103.206 117.002 92.4252 117.002 82.8422Z" fill="black"/>
</svg>
