<svg xmlns="http://www.w3.org/2000/svg">
  <symbol viewBox="0 0 18 18" id="icon_search">
    <path d="M17.693 16.057l-3.477-3.477c1.023-1.33 1.534-2.966 1.534-4.705C15.75 3.477 12.273 0 7.875 0S0 3.477 0 7.875s3.477 7.875 7.875 7.875c1.739 0 3.375-.614 4.704-1.534l3.478 3.477c.204.205.409.307.818.307.614 0 1.125-.511 1.125-1.125 0-.204-.102-.511-.307-.818zM2.25 7.875c0-3.068 2.557-5.625 5.625-5.625S13.5 4.807 13.5 7.875 10.943 13.5 7.875 13.5 2.25 10.943 2.25 7.875z"/>
  </symbol>

  <symbol viewBox="0 0 21 18" id="icon_cart">
    <path d="M20.19 6.86h-3.55L13.19.38c-.2-.38-.61-.48-1.02-.28-.4.19-.5.57-.3.95l3.14 5.8H5.78l3.15-5.8c.2-.38 0-.76-.3-.95A.82.82 0 007.6.38L4.16 6.86H.8c-.4 0-.81.28-.81.76 0 .38.3.76.81.76h.2l.92 2.86c-.2.1-.3.28-.3.57 0 .38.3.67.7.67L4.06 18h12.88l1.73-5.52c.4 0 .7-.29.7-.67 0-.2-.1-.48-.3-.57L20 8.38h.2c.4 0 .81-.28.81-.76s-.4-.76-.81-.76zm-4.57 9.62H5.07l-1.21-4.1h13.08l-1.32 4.1zm1.63-5.53H3.35L2.54 8.3h15.52l-.81 2.66z"/>
  </symbol>

  <symbol viewBox="0 0 102 35" id="logo_footer">
    <path d="M19.22 21.5c-.1-2.7-.5-5.3-.5-8 0-2.2.4-4.4-.4-6.5 0-.2.1-.5.1-.7.2-1-3.3-.5-3.8.5-.3.3-.5.6-.4 1 0 .1.1.2.1.3-.7 3.2-1.6 6.3-2.6 9.4-.4 1.2-.9 2.3-1.3 3.5-.6-1.1-1.2-2.2-1.6-3.4-1.4-3.4-2.6-6.9-4.3-10.2.2-1.5-3.2-1.4-3.9 0-.8 1.7-.7 3.4-.4 5.2.3 2 .4 4 .4 6.1 0 4 .4 7.9.4 11.9-.4.4-.5.9-.1 1.4.2.2.4.4.6.5 1 .7 3.6.1 3.6-1.3 0-4.1-.3-8.2-.4-12.4v-1.2c.1.1.1.3.2.4.6 1.6 1.3 3.2 2.2 4.7.9 1.5 1.3 3.1 1.8 4.7-.2.2-.3.5-.2.7 0 .2.1.3.3.4.6.5 1.8.3 2.5 0 .3-.1.6-.3.8-.4.3-.2.9-.7.7-1.2 0-.1-.1-.2-.1-.3.5-1.3.7-2.6 1-3.9.3-1.4.8-2.8 1.3-4.1.1.6.1 1.2.2 1.9.2 2.6 0 5.1 0 7.6 0 .8.1 1.6.2 2.5.1.3.4 1.8.3 1.9-.8.5-.6 1.1.2 1.3.9.2 2.1-.1 2.8-.7 1.2-1.1.6-2.8.4-4.2-.5-2.4 0-5-.1-7.4zM27.62 22.2c-.1-2-.8-3.9-.8-5.9 0-2.3.2-4.6-.2-6.9-.1-.7-4.1.1-3.9 1 .3 2.1.2 4.2.2 6.4 0 2 .5 3.9.7 5.9.3 2.1-.1 4.2.1 6.2.1 1 .8 2.7.1 3.6-.4.5 1.5.3 1.6.3.8-.1 1.8-.4 2.3-1 .7-.8.2-2.4.1-3.4-.3-2-.1-4.2-.2-6.2zM43.92 18.9c-2.1-2.8-5.9-.8-8.6-1.5-1.4-.4-1.4-2.3-1.4-3.4 0-1.4-.1-2.7-.3-4.1-.1-1.1 0-2.1.7-2.9.1-.1.9-.3.8-.3.4-.1.7-.1 1.1-.1 1.5-.1 4.6.2 4 2.5-.3 1 3.6.4 3.9-.6 1.2-4.6-7.3-3.7-9.7-3.1-2.2.6-4.6 1.8-4.8 4.4-.1 1.2.3 2.4.3 3.6.1 1.4-.2 2.8.3 4.1 1.1 3 5.5 1.6 7.8 1.7 3.8.3 2.7 5.5 2.7 7.9 0 1.3 1.2 3.4.2 4.5-.6.7-2 .7-2.8.8-.8.1-2.2.3-2.7-.5-1-1.4.1-3.8-.1-5.4-.1-.9-4.1-.1-3.9 1 .3 2.6-1.4 6.1 2.4 6.6 2.4.3 5.2-.2 7.5-.9 1.2-.4 2.3-.9 3.2-1.8 1-.9.7-2.3.4-3.5-.5-3.1.9-6.5-1-9zM61.32 18.7c-.1-3.8-.7-7.5-.7-11.3 0-2-4-1.3-4 .3 0 3.6.5 7.2.7 10.8v.2c-1.9 0-3.9.2-5.9.2.2-4.6-.6-9.2-.4-13.9 0-.6-3.9-.1-3.9 1-.2 4.5.6 8.9.5 13.4l-.3 6.4c0 1.1.2 2.2.3 3.3.1 1 .5 2.3.2 3.3-.2.8 3.6.3 3.9-.7.5-1.8-.2-4-.4-5.8-.2-1.7 0-3.5.1-5.2 2-.1 4.1-.3 6.1 0l.3 4.1c.1 1.2.2 2.3.2 3.5 0 1 .1 2.5-.2 3.5-.8 2.1 3.1 1.9 3.7.4.7-1.9.5-4.2.4-6.2-.2-2.5-.6-4.9-.6-7.3zM78.22 23.1c-.9-2.8-2.4-5.2-3.6-7.8 1-1.9 2-3.9 2.9-5.9.8-1.8 1.4-3.8 3.1-5.1.6-.4.6-.9-.3-1-.9-.1-2.1.2-2.8.7-1.4 1.3-2.4 2.7-3.1 4.4-.9 2.1-1.9 4.1-2.9 6.1-.1.1-.1.3-.2.4-.5.3-.8.8-.6 1.3-.8 1.6-1.6 3.1-2.5 4.6-.3-5.5-1-11.1-1.2-16.6 0-1.3-4-.5-3.9 1 .2 6.9 1.2 13.7 1.3 20.6v.1c-.3.3-.2.5.1.6 0 1.8-.1 3.5-.2 5.3-.5.7.5 1.1 1.1 1.1h.1c.7 0 2.6-.3 2.7-1.4.2-2.1.3-4.2.2-6.3 1.6-1.7 2.9-3.6 4.1-5.6.8 1.5 1.5 3 2 4.6.9 2.7 2.3 5.3 3.1 8 .5 1.8 4.5.7 3.9-1-1-2.8-2.4-5.3-3.3-8.1zM101.72 18.5c-.2-.8-1.4-.8-2.3-.8v-1c-.1-2.7-.2-5.4-.4-8-.2-2.5-1.6-3.3-4-3.2-2.4.1-5.2.5-7.5 1.4-2.6 1-4.1 2.9-4.6 5.7-.5 3 .2 6.2.4 9.2.2 3.5.1 7 .1 10.5 0 .6 3.9 0 3.9-1V23c0-.8-.1-1.6-.1-2.4 1.4-.6 3.7 0 5.1.1 1.1.1 2.2-.2 3.2-.3 0 2.3.1 4.6.2 6.9 0 1.2.5 3.5-.4 4.5-.4.5 1.5.3 1.6.3.8-.1 1.8-.4 2.3-1 .9-1.1.5-3.8.4-5.1-.1-1.9-.1-3.8-.1-5.7 1.1-.2 2.4-.9 2.2-1.8zm-14.6-.1l-.3-3.7c-.2-2.3.1-5.6 2.3-7 .6-.4 1.7-.3 2.4-.4 1-.2 2-.4 2.8.2 1.2.8.9 3.7.9 4.9 0 2 .2 4 .3 6-.6.1-1.1.1-1.7.1-2.3-.2-4.6-.6-6.7-.1zM24.22 6.7c.5-.1 1-.2 1.5-.5l.2-.2c.5-.3 1-.8.7-1.4-.5-1.1-.4-2.2-.4-3.4 0-1-1-1.2-1.8-1.2-.7.1-2.2.6-2.2 1.5 0 1-.1 2 .1 3 0 .1-.1.2-.1.4-.1.2 0 .4.1.6v.4c.1.2.2.4.4.5.6.3 1.1.3 1.5.3z"/>
  </symbol>

  <symbol viewBox="0 0 22 22" id="icon_instagram">
    <path d="M22.599 12.6c0-2.4-.3-4.8-.3-7.1 0-.8-.1-1.5-.2-2.3-.1-.3-.1-.7-.2-1.1-.3-.2-.2-.6-.5-.8-.4-.2-1.2-.1-1.7-.2-.7 0-1.3-.1-1.9-.2-1.9-.1-4-.1-6-.1s-4-.1-5.7-.4h-2.2c-.1 0-.1.1-.2.1-.6 0-1.1.2-1.6.3-.2.1-.4.2-.7.3-.1.2-.5.1-.6.4-.2.2.2.5 0 .6V3c.2.1 0 .6.1.8v1c0 1.3.1 2.4.1 3.7.5 2.8.4 6.5.1 9.4.2.6.4 1.1.5 1.7.3.5.3 1.1.7 1.5.5.2 1.2.2 1.9.2.4.1.7.3 1.1.3 2.8-.2 5.5-.2 8.4-.2 2.7.2 5.8.2 8.3-.2.2-.1.1-.5.2-.8-.1-.4.2-.4.2-.8.2-2.1.2-4.5.2-7zm-13-6.2c.8-.2 1.5-.3 2.4-.3.7.1 1.3.3 1.9.5.1.2-.2.5.2.7.1 0 .1 0 .2.1.4 0 .8.2 1.1.4.5.1.5.5 1.1.4-.1.2-.1.5-.1.8.3 1.2.5 2.8.3 4.3-.2.2-.2.4-.3.7-.3.3-.5.8-.8 1.1-.1.2-.3.4-.5.5-.1.2-.2.5-.5.5-.3.2-.6 0-.8-.1-.4.2-.9.3-1.2.6l-2.4-.3c-.2-.1-.5-.3-.8-.3-.2-.2-.5-.4-.8-.5-.1-.1-.3-.1-.5-.2-.2 0-.2-.2-.5-.2-.1-.4-.4-.6-.5-1.1-.2-.3-.3-.8-.5-1.2 0-1.4.1-2.7.4-3.8.3-.6.8-1.1 1.1-1.7.2 0 .4-.1.4-.3.3.1.4-.1.7-.1.2 0 .2-.3.4-.5zm-1.7-2.7c-.1-.3-.1-.7-.1-1.1 0-.3.3-.3.3-.5 0-.1-.1-.1-.2-.1.1-.1.7-.1.8 0 .1.5-.4.5-.5.7 0 .2.3 0 .5.1 0 .9-.1 1.5 0 2.2h-.5c0 .2.2.2.5.2-.1.3.1.4.1.6-.2.2-.7 0-1.1.1 0-.6.3-1.4.2-2.2zm-.7-1.6c.1 0 .1 0 .2.1.2.3 0 .7-.1.9-.2-.2 0-.7-.1-1zm.2 1.8c-.1-.1-.2-.2-.2-.5.2.1.2.3.2.5zm0 1.4c-.1.1-.1 0-.1-.2.1-.1.1.1.1.2zm-.2.2c.2 0 .1.2.2.2 0 .2-.3.2-.4.1.1-.1.2-.2.2-.3zm-2.3-1.2c0-.1 0-.2-.1-.2-.1-.7.1-1.4 0-2 .3-.2.8 0 1.1-.1v1.1c-.1.1-.2.1-.4.1-.1.3.3.1.4.3 0 .9-.1 1.8.2 2.4-.6-.1-.9.1-1.4.1.1-.6 0-1.4.5-1.6 0-.1-.3 0-.3-.1zm-.5 0c-.2 0-.2-.5-.1-.6.3 0 .2.5.1.6zm-.2 1c.1-.3 0-.3.1-.7.2 0 .2.8-.1.7zm.2-2.1c-.3.1-.3-.3-.2-.4.3 0 .4.3.2.4zm0-1.1c0 .2-.1.2-.1.3-.2 0-.1-.2-.2-.2.1-.1.2-.1.3-.1zm-.2 3.7c.1 0 .1.3-.1.2.1 0 .1-.1.1-.2zm-.7-3.7c0 .3-.4.3-.4 0h.4zm-1 .1c0 .2-.3.2-.4.4-.2-.2.1-.5.4-.4zm-.4.7c.2-.2.5-.4.7-.6 0-.1.1-.1.1-.2h.2c.1.4-.3.3-.3.5 0 .1-.1.1-.1.2 0 .3.1.6.1 1-.3 0-.3.3-.6.2 0-.4-.2-.6-.1-1.1zm.1 3.3V4.6c.2-.2.4-.4.6-.5.3.5.2 1.4.5 1.9-.4.1-.8.1-1.1.2zm18.2 11.1c-.1 1-.2 2-.4 2.8-2.9.1-6 0-8.9.2-.2 0-.3 0-.2-.2-.3 0-.3.2-.5.2.2-.3.4-.9.2-1.3-.8 0-.8.8-1.1 1.3-.7-.1-1.1.1-1.8.1.2-.7.7-1 .9-1.7-.4-.5-1 .1-1.2.5-.2.5-.6.8-.8 1.3h-1c.2-.5.5-.9.8-1.4.2-.5.6-.7.7-1.4-.2-.3-.4 0-.7 0-.1.2-.3.3-.4.5-.2.4-.5.7-.7 1.1-.2.2-.3 0-.5.2-.4.3-.6.7-1 1-.2-.1 0-.4.2-.4 0-.2-.1-.5.1-.6.1-.4.2-.6.4-.9.1-.7.5-1.2.7-1.9-.6.1-.7.6-1 1-.2.4-.5.8-.7 1.3-.2-.1 0-.6-.1-.8.1-.6.3-1.1.4-1.7.1-.2.2-.5.2-.8.2-.2 0-.6-.1-.8-.2 0-.4.1-.5.3-.2 0-.2.5-.3.3 0-2.6-.5-4.8-.5-7.4 0-.3-.2-.4-.2-.7 1.6 0 3.1.1 4.8.2-.1.1-.2.3-.3.4-.1.1-.2.2-.4.3-.6 1.7-1 4-.6 6.2.2.6.6 1 1 1.4.9.5 1.6 1.1 2.5 1.7 1.7.4 3.8.4 5.5 0 .2-.1.5-.2.7-.4 1.4-1.2 2.8-2.5 3-4.9v-1.4c-.2-1.6-.7-2.9-1.7-3.6.3-.2 1.1 0 1.7.1h.7c.4 0 .9-.1 1.4 0 .1.2.1.5.2.8-.1 1.7-.2 3.3-.2 5.1.1.5.1 1 .2 1.4-.2.8-.3 1.7-.5 2.6zm.4-11.2c-.6-.1-1.2-.3-1.9-.4.1-.3.8 0 1-.2.4-.2.3-.9.3-1.5 0-.3.1-.6.1-1.1-.4-1-1.8-.4-2.9-.5-.2.7-.5 1.8-.3 2.7.2.5 1 .3 1.5.5-.1.3-.7.1-1 .1-.3-.1-.7-.1-1-.2-2.3.1-4.3 0-6.5.2.1-1.2.1-2.5-.1-3.6h3.1c-.3.4-.9.5-1.3.8-.4.2-.9.5-1.1.9.2.1.5-.2.8-.4.4-.1.5-.4.8-.5.4-.4 1.1-.6 1.7-.9.4 0 .7 0 1 .1 1.3 0 2.5.1 3.8.1.6.1 1.5.1 2 .3l.3.9c-.1 1-.3 1.8-.3 2.7zm-5.9-3.7c.1-.1 0-.1 0 0zm0 0c-.5.2-1 .3-1.4.7.5-.2 1.1-.3 1.4-.7zm1.1.6c.1-.1 0-.1 0 0zm-1.8.9c.7-.2 1.2-.6 1.7-.9-.4 0-.6.3-1 .4-.1.2-.5.2-.7.5zm-.7-.8c-.1 0 .1.1 0 0zm-.6.6c.1-.1 0-.1 0 0zm-.1.1c.1 0 .1-.1 0 0 0-.1 0-.1 0 0zm-.1 0c.1 0 .1 0 0 0 0-.1 0 0 0 0zm-.8.6c.3-.1.6-.3.8-.6-.3.2-.6.4-.8.6zm2.3 1c.5 0 .7-.4 1.2-.5.3-.3.8-.4 1-.8-.6 0-.8.4-1.2.5-.3.4-.8.5-1 .8zm-2.3-1c-.3 0 0 .3 0 0zm-.6.4c.1 0 .2 0 0 0 .1-.1 0 0 0 0zm2.9.6c-.2.1 0 .1 0 0zm-1.2 1.8c-.2-.2-.7-.2-1-.4-.7 0-1.2.1-1.7.2-.3.2-.6.3-.9.5-.3.2-.4.4-.8.5-.2.2-.4.5-.7.6 0 .2-.2.3-.3.4-.1.1-.1.3-.2.4 0 .1 0 .3-.1.3.1 1.5.3 2.9.7 4.2.3.6 1 .8 1.4 1.3.6.3 1.3.4 2.1.5.3-.1.6-.1.9-.1 1.2-.2 2.1-.7 2.8-1.4.1-.3.3-.5.5-.7-.3-.7.3-1.1.5-1.6 0-1.3-.2-2.5-.6-3.4-.3-.6-.9-.8-1.4-1.1-.1 0-.2 0-.2-.1-.2-.1-.7-.2-1-.1zm-3.4 4.4c-.1-.1-.1-.2-.2-.4.3-.1.2.2.2.4zm.1.3c0-.1.1 0 0 0 0 .2 0 .1 0 0zm.4-2.1c0-.1.1 0 0 0 .1.1 0 .1 0 0zm1.7-2.1c-.2.3 0 .6.1.8-.3 0-.6-.8-.1-.8zm.4 3.9c-.1 0 0 0 0 0 .1 0 0 .1 0 0zm.7 2.9c0-.1.1 0 .2 0 0 .1-.2.1-.2 0zm2.2-2.5c-.2-.1-.1.2-.4.2.1-.2.1-.3.2-.5.2 0 .3.1.2.3zm-1.1-3.8c.2.1.4.2.6.4.1.2.2.4.4.5.1.8.2 1.5.2 2.4-.3.1-.4.3-.7.4-.8 0-1.4-.2-1.9-.5-.2-.3-.4-.5-.5-.8V9.5c.2-.2.3-.4.5-.6.2-.1.5-.2.5-.6 0-.1-.1-.1-.1-.2.2 0 .2.2.4.2s.3-.2.6-.1z"/>
  </symbol>

  <symbol viewBox="0 0 15 28" id="icon_facebook">
    <path d="M12.303 5.943c.998 0 1.997 0 2.697-.313.4-.833.599-1.98.599-3.125-.2 0-.1-.312-.2-.417 0-.208-.3-.208-.3-.416-.3-.208-.499-.417-.699-.625-.699-.208-1.398-.313-2.197-.521-.8 0-1.898-.104-2.598.104-2.597 0-3.995 1.146-5.294 2.5 0 .104 0 .208-.1.208-.6 1.667-.1 3.75-.2 5.834.1.416.1 1.041.2 1.458-.999.312-2.198.416-3.396.52-.3.313-.2 1.146-.2 1.771.1.625.3 1.146.4 1.667.2.208.599.417.799.52.1 0 .1.105.1.105.5.313 1.498 0 2.297.104-.1 2.083.3 4.063 0 5.938 0 .312.3.416.2.833 0 1.041-.1 2.083.2 2.812-.3.521-.5 1.042-.4 1.875.1 0 .1.208.1.313-.1.52.6.208.5.729.2.52-.4.208-.4.52v.938c.5.313 1.498.208 2.297.208.9-.416 2.198-.52 2.797-1.25.5.209.9 0 1.2-.208 0-.312.299-.312.199-.73 0-.312-.2-.52-.1-.937v-3.02c-.2-2.396 0-5.104-.3-7.5.9-.104 1.898-.104 2.598-.417.4-.52.4-1.25.5-1.979.199-.208.199-.625.199-1.041.2-.209.1-.73.1-1.146-.1-.625-.2-1.354-.8-1.458-.898-.209-1.997.624-2.996.312 0-1.146-.3-2.396 0-3.542.799-.208 1.498-.416 2.197-.624zm-3.796 5c.1.312.3.52.4.729.099 0 .199 0 .199.104 1.199.104 2.198-.104 3.097-.313 0 1.042-.3 1.77-.5 2.604-.7 0-1.498.313-1.998.208-.3.209-.4.521-.6.73 0 .416.1.52 0 .833-.199.104-.099.625-.199.833v1.563c.1.312-.1.312-.1.52V22.4c-.1.313.1.313.1.521v3.125c.1.312-.1.833.1.937-.1.417-.4 0-.8.105-.499.104-.898.416-1.498.416.1-.416.3-.625.3-1.146 0-.416-.4-.312-.5-.52.2-.625.6-1.146.7-1.875.2-.521.7-1.354.3-1.875-.5-.104-.5.312-.8.416 0 .105 0 .209-.1.209 0 .104 0 .208-.1.208 0 .104-.2.104 0 0 0-.104 0-.208.1-.208 0-.104 0-.209.1-.209v-.312c.4-.625.7-1.25.8-2.083.2-.313.3-.73.4-1.042.199-.312.299-.937.1-1.25-.5 0-.8.313-.9.73-.3-.21.2-.417.1-.73.1-.208.2-.625.3-.833.2-.417.599-1.354 0-1.667-.4 0-.6.208-.7.521-.2.208-.4.417-.5.73-.399-.105-.099-.73-.199-1.147-.1-.52.1-.937 0-1.25-.6-.833-1.998-.104-3.196-.312-.1-.313-.2-1.042-.1-1.25.999-.104 2.497.208 3.196-.208 0-.104 0-.209.1-.209.1-.729-.3-1.041-.5-1.458.2-.833 0-2.083.1-3.125.2-.104.3-.417.5-.625.1-1.041.7-1.562.7-2.604-.3 0-.6-.104-.6.208-.3-.104-.4.521-.5.209-.1-.521.2-.625.3-1.042.6-.417 1.199-.833 1.898-1.25 1.698-.208 4.595-.417 6.094.208.1.625-.3.938-.2 1.563h-1.499c-1.098.208-1.997.729-2.996 1.042-.2.104-.3.312-.5.416 0 .417-.2.625-.3 1.042-.3 1.458-.1 2.708-.1 4.166z"/>
  </symbol>

  <symbol viewBox="0 0 23 20" id="icon_twitter">
    <path d="M24.225 4.3c-.2-.4-.9-.3-1.4-.4h-1.1c.1-.4.3-.6.5-1 .1-.4.3-.7.2-1.3l.3-.6c.1-.1.2-.5.1-.7-.1-.2-.3-.2-.6-.2-.1 0-.2.1-.2.1-.4.4-.8 1-1.3 1.4h-.1c-.1 0 0 0-.1.1s-.3.2-.4.2c-.3.2-.5.4-.9.5-.5-.2-1.2-.3-1.9-.4-1.2.1-2.3.2-3 .7-.9.3-1.5 1-2.1 1.6 0 .3-.3.4-.4.7 0 0 0 .1-.1.1 0 .2-.1.3-.1.5 0 .1.2.4 0 .5-.8-.1-1.5-.6-2.1-1-.7-.4-1.5-.6-2.1-1.1-.7-.3-1.3-.8-1.8-1.3-.2-.3-.5-.5-.7-.9-.4-.2-.2-.9-.7-.9-.3 0-.3.2-.4.4-.1.2-.4.2-.4.5 0 0 0 .1-.1.1-.2 1.1-.5 2-.5 3.3.1.4.3.7.6 1-.4.1-.7.2-.9.5-.1 1.1.4 1.6.7 2.3.1.4.4.7.6 1 0 .2.2.3.3.4 0 .1.1.1.1.2s.3.2.1.2c-.4.1-1 .1-1.3.4-.1.3-.1.8 0 1.1 0 .2.3.3.3.5.5.4 1.1.7 1.6 1.1.6.2 1.2.3 1.9.4-.1.3-.3.6-.6.7-.8.4-1.8.5-2.7.7-.6 0-1 .2-1.6.2-.3.1-.9.1-1.1.2l-.2.2c-.1.4.1.7.4.9 0 .3.2.3.4.4.1.2.3.3.4.4.5.5 1.3.8 1.9 1.1.8.2 1.6.4 2.5.5.9.1 1.9.1 2.8.2h1c.5.1 1.2.1 1.9.1.1-.1.3-.1.5-.1.5-.3 1.2-.4 1.6-.7.6-.2 1-.6 1.6-.9.9-.8 1.9-1.3 2.5-2.4.2-.2.4-.4.4-.7.3-.2.4-.5.6-.7.4-.4.7-.9 1-1.4.3-.5.6-1.1.9-1.6 0-.4.3-.5.3-.9.2-.2.2-.7.4-.9 0-.3 0-.4.1-.6 0-1.3 0-2.4-.3-3.4.6-.2 1.2-.3 1.6-.6.8.3 1.3-.1 1.1-.7zm-3.4 4c-.2.9-.6 1.4-1 2 .1.4-.1.5-.1.9-.2.3-.3.7-.4 1-.2.3-.3.6-.5.9-.4.5-.8 1.1-1.2 1.6-.4.6-.9 1-1.3 1.5s-.9.9-1.4 1.3c-.5.2-.9.4-1.3.7-.2.1-.5.2-.7.3-.2.1-.5.1-.7.3-1.1.1-2.3.2-3.6.1-1-.1-2.1-.2-3-.4-.9-.2-1.5-.7-2.3-1 .2-.2.6-.2 1-.2 0-.2.4 0 .4-.1.3.1.3-.1.5-.1.6-.2 1.2-.3 1.7-.6.3-.1.4-.4.7-.6 0-.2.1-.3.2-.4 0-.3.2-.4.1-.8.1-.2.3-.3.3-.7-.1-.1-.1-.3-.3-.4 0-.2-.4-.1-.4-.2-.3 0-.4 0-.6-.1-.2 0-.5.1-.5-.1-.8 0-1.3-.4-1.9-.7.4-.3 1-.4 1.3-.7.5-.1 1.1-.1 1.1-.7 0-.7-.8-.7-1.3-.8-.8-.7-1.2-1.7-1.8-2.5.2-.2.6-.2.7-.4.5.1.5-.3.7-.5 0-.5-.3-.6-.6-.8-.3-.2-.5-.5-.7-.7 0-.8 0-1.7.1-2.4.1 0 .1 0 .1.1.2.4.6.8.8 1.2.5.4.9.9 1.6 1.1.5.4 1.1.6 1.6 1 .6.3 1.2.6 1.7.9.7.2 1.1.7 2 .6l.6-.3c.3-.5-.1-1.1.1-1.6.3-.7.8-1 1.3-1.5.3-.2.6-.3.8-.5.3-.1.7-.2 1-.4.4 0 .7-.1 1-.1h1.3c.2.1.5.1.7.1.2.1.4.3.7.4.8.7 1.3 1.7 1.4 3 0 .3.1.7.1 1.3zm.3-5.6c-.1.3-.2.7-.6.8 0-.1-.1-.1-.1-.2 0-.2.2-.2.3-.3.1-.1.2-.3.4-.3.1 0 0-.1 0 0zm-5.5 3c.2.1.3.3.5.4.1.2.3.3.6.4 0-.2.3 0 .4-.2.2 0 .2-.2.3-.3 0-.5-.1-1-.4-1.3-.7-.5-1.7 0-1.4 1z"/>
  </symbol>

  <symbol viewBox="0 0 28 35" id="logo_htmlacademy">
    <path d="M13.6 0h-.1L0 1.4v24.7l13.5 8 13.4-8V1.4L13.6 0zM25 12.1L13.5 5.3v-.1h-.1l-.1-.1v.1L1.9 12.1v-9l11.5-1.2L25 3.1v9zM13.4 6.8l11.5 6.7-4.5 2.6-7.1-4.2v1.4l5.9 3.5-.9.5-5-3v1.4l3.8 2.3-.8.5-3-1.8v1.4l1.9 1.1-1.8 1.1L2 13.6l11.4-6.8zM1.9 15.1l11.4 6.8v1l-7.9-4.7v1.4l8 4.8v1.1l-8-4.7v1.4l8 4.8 8.1-4.9v-5.2l3.4-2v10l-11.5 6.9L1.9 25v-9.9z"/>
  </symbol>
</svg>